<svg width="36" height="36" viewBox="0 0 36 36" fill="none" xmlns="http://www.w3.org/2000/svg">
<path d="M36 18C36 27.9411 27.9411 36 18 36C8.05887 36 0 27.9411 0 18C0 8.05887 8.05887 0 18 0C27.9411 0 36 8.05887 36 18Z" fill="white"/>
<path d="M23.1707 24.1875C22.2188 24.1875 21.3822 24.0072 20.6611 23.6466C19.9543 23.2861 19.4063 22.7668 19.0168 22.0889C18.6274 21.3966 18.4327 20.5817 18.4327 19.6442V16.399C18.4327 15.4471 18.6274 14.6322 19.0168 13.9543C19.4063 13.2764 19.9543 12.7572 20.6611 12.3966C21.3822 12.0361 22.2188 11.8558 23.1707 11.8558C24.5409 11.8558 25.6442 12.2236 26.4808 12.9591C27.3173 13.6947 27.7572 14.6971 27.8005 15.9663H25.8534C25.8101 15.2019 25.5505 14.6178 25.0745 14.2139C24.613 13.7957 23.9784 13.5865 23.1707 13.5865C22.3197 13.5865 21.6418 13.8317 21.137 14.3221C20.6322 14.7981 20.3798 15.4832 20.3798 16.3774V19.6442C20.3798 20.5385 20.6322 21.2308 21.137 21.7212C21.6418 22.2115 22.3197 22.4567 23.1707 22.4567C23.9784 22.4567 24.613 22.2476 25.0745 21.8293C25.5505 21.4111 25.8101 20.8269 25.8534 20.0769H27.8005C27.7572 21.3462 27.3173 22.3486 26.4808 23.0841C25.6442 23.8197 24.5409 24.1875 23.1707 24.1875Z" fill="black"/>
<path d="M22.5865 17.1346C22.5865 16.7045 22.9352 16.3558 23.3654 16.3558C23.7955 16.3558 24.1442 16.7045 24.1442 17.1346V18.8654C24.1442 19.2955 23.7955 19.6442 23.3654 19.6442C22.9352 19.6442 22.5865 19.2955 22.5865 18.8654V17.1346Z" fill="black"/>
<path d="M13.4391 12.2019C14.6122 12.2019 15.5358 12.5003 16.2099 13.0971C16.8841 13.7074 17.2212 14.5279 17.2212 15.5587C17.2212 16.603 16.8841 17.4236 16.2099 18.0203C15.5358 18.6171 14.6256 18.9155 13.4796 18.9155H10.0414V20.0344C10.0414 20.7261 10.2504 21.2551 10.6683 21.6213C11.0728 22.001 11.6526 22.1909 12.4077 22.1909C13.0683 22.1909 13.6212 22.0485 14.0661 21.7637C14.511 21.4924 14.7672 21.1194 14.8346 20.6447H16.6549C16.5335 21.6077 16.0818 22.374 15.2998 22.9436C14.5178 23.5133 13.5403 23.7981 12.3672 23.7981C11.0863 23.7981 10.0751 23.4658 9.33351 22.8012C8.59194 22.1366 8.22115 21.2347 8.22115 20.0954V12.4054H10.0009V14.5415H10.3043L10.0009 14.8467C10.0009 14.0329 10.3178 13.3887 10.9515 12.914C11.5717 12.4393 12.4009 12.2019 13.4391 12.2019ZM12.9942 13.6464C12.1313 13.6464 11.4234 13.8634 10.8706 14.2974C10.3178 14.7314 10.0414 15.2874 10.0414 15.9656V17.5524H13.4391C14.0459 17.5524 14.5245 17.3829 14.8751 17.0438C15.2256 16.7048 15.4009 16.2436 15.4009 15.6604C15.4009 15.0365 15.1919 14.5415 14.774 14.1753C14.3425 13.8227 13.7492 13.6464 12.9942 13.6464Z" fill="black"/>
</svg>
